<mxfile host="app.diagrams.net" agent="Mozilla/5.0 (Windows NT 10.0; Win64; x64) AppleWebKit/537.36 (KHTML, like Gecko) Chrome/134.0.0.0 Safari/537.36" version="26.2.14">
  <diagram name="Page-1" id="wxAdG88sj4ZDVnb_hy_K">
    <mxGraphModel dx="835" dy="508" grid="1" gridSize="10" guides="1" tooltips="1" connect="1" arrows="1" fold="1" page="1" pageScale="1" pageWidth="850" pageHeight="1100" math="0" shadow="0">
      <root>
        <mxCell id="0" />
        <mxCell id="1" parent="0" />
        <mxCell id="wIB7wDG2Cj-p4bcjclMh-2" value="/commit" style="swimlane;fontStyle=1;align=center;verticalAlign=top;childLayout=stackLayout;horizontal=1;startSize=26;horizontalStack=0;resizeParent=1;resizeParentMax=0;resizeLast=0;collapsible=1;marginBottom=0;whiteSpace=wrap;html=1;" vertex="1" parent="1">
          <mxGeometry x="240" y="220" width="160" height="52" as="geometry" />
        </mxCell>
        <mxCell id="wIB7wDG2Cj-p4bcjclMh-3" value="POST: create or update file" style="text;strokeColor=none;fillColor=none;align=left;verticalAlign=top;spacingLeft=4;spacingRight=4;overflow=hidden;rotatable=0;points=[[0,0.5],[1,0.5]];portConstraint=eastwest;whiteSpace=wrap;html=1;" vertex="1" parent="wIB7wDG2Cj-p4bcjclMh-2">
          <mxGeometry y="26" width="160" height="26" as="geometry" />
        </mxCell>
        <mxCell id="wIB7wDG2Cj-p4bcjclMh-6" value="/getCommits" style="swimlane;fontStyle=1;align=center;verticalAlign=top;childLayout=stackLayout;horizontal=1;startSize=26;horizontalStack=0;resizeParent=1;resizeParentMax=0;resizeLast=0;collapsible=1;marginBottom=0;whiteSpace=wrap;html=1;" vertex="1" parent="1">
          <mxGeometry x="40" y="220" width="160" height="52" as="geometry" />
        </mxCell>
        <mxCell id="wIB7wDG2Cj-p4bcjclMh-7" value="GET: list recent commits" style="text;strokeColor=none;fillColor=none;align=left;verticalAlign=top;spacingLeft=4;spacingRight=4;overflow=hidden;rotatable=0;points=[[0,0.5],[1,0.5]];portConstraint=eastwest;whiteSpace=wrap;html=1;" vertex="1" parent="wIB7wDG2Cj-p4bcjclMh-6">
          <mxGeometry y="26" width="160" height="26" as="geometry" />
        </mxCell>
        <mxCell id="wIB7wDG2Cj-p4bcjclMh-8" value="/uploadImage" style="swimlane;fontStyle=1;align=center;verticalAlign=top;childLayout=stackLayout;horizontal=1;startSize=26;horizontalStack=0;resizeParent=1;resizeParentMax=0;resizeLast=0;collapsible=1;marginBottom=0;whiteSpace=wrap;html=1;" vertex="1" parent="1">
          <mxGeometry x="440" y="220" width="160" height="52" as="geometry" />
        </mxCell>
        <mxCell id="wIB7wDG2Cj-p4bcjclMh-9" value="POST: upload an image" style="text;strokeColor=none;fillColor=none;align=left;verticalAlign=top;spacingLeft=4;spacingRight=4;overflow=hidden;rotatable=0;points=[[0,0.5],[1,0.5]];portConstraint=eastwest;whiteSpace=wrap;html=1;" vertex="1" parent="wIB7wDG2Cj-p4bcjclMh-8">
          <mxGeometry y="26" width="160" height="26" as="geometry" />
        </mxCell>
        <mxCell id="wIB7wDG2Cj-p4bcjclMh-10" value="/deleteImage" style="swimlane;fontStyle=1;align=center;verticalAlign=top;childLayout=stackLayout;horizontal=1;startSize=26;horizontalStack=0;resizeParent=1;resizeParentMax=0;resizeLast=0;collapsible=1;marginBottom=0;whiteSpace=wrap;html=1;" vertex="1" parent="1">
          <mxGeometry x="640" y="220" width="160" height="52" as="geometry" />
        </mxCell>
        <mxCell id="wIB7wDG2Cj-p4bcjclMh-11" value="DELETE: delete an image" style="text;strokeColor=none;fillColor=none;align=left;verticalAlign=top;spacingLeft=4;spacingRight=4;overflow=hidden;rotatable=0;points=[[0,0.5],[1,0.5]];portConstraint=eastwest;whiteSpace=wrap;html=1;" vertex="1" parent="wIB7wDG2Cj-p4bcjclMh-10">
          <mxGeometry y="26" width="160" height="26" as="geometry" />
        </mxCell>
        <mxCell id="wIB7wDG2Cj-p4bcjclMh-12" value="/files/&amp;lt;path&amp;gt;" style="swimlane;fontStyle=1;align=center;verticalAlign=top;childLayout=stackLayout;horizontal=1;startSize=26;horizontalStack=0;resizeParent=1;resizeParentMax=0;resizeLast=0;collapsible=1;marginBottom=0;whiteSpace=wrap;html=1;" vertex="1" parent="1">
          <mxGeometry x="440" y="320" width="160" height="86" as="geometry" />
        </mxCell>
        <mxCell id="wIB7wDG2Cj-p4bcjclMh-15" value="PUT: create or update file" style="text;strokeColor=none;fillColor=none;align=left;verticalAlign=top;spacingLeft=4;spacingRight=4;overflow=hidden;rotatable=0;points=[[0,0.5],[1,0.5]];portConstraint=eastwest;whiteSpace=wrap;html=1;" vertex="1" parent="wIB7wDG2Cj-p4bcjclMh-12">
          <mxGeometry y="26" width="160" height="26" as="geometry" />
        </mxCell>
        <mxCell id="wIB7wDG2Cj-p4bcjclMh-14" value="" style="line;strokeWidth=1;fillColor=none;align=left;verticalAlign=middle;spacingTop=-1;spacingLeft=3;spacingRight=3;rotatable=0;labelPosition=right;points=[];portConstraint=eastwest;strokeColor=inherit;" vertex="1" parent="wIB7wDG2Cj-p4bcjclMh-12">
          <mxGeometry y="52" width="160" height="8" as="geometry" />
        </mxCell>
        <mxCell id="wIB7wDG2Cj-p4bcjclMh-13" value="GET: fetch a file&#39;s contents" style="text;strokeColor=none;fillColor=none;align=left;verticalAlign=top;spacingLeft=4;spacingRight=4;overflow=hidden;rotatable=0;points=[[0,0.5],[1,0.5]];portConstraint=eastwest;whiteSpace=wrap;html=1;" vertex="1" parent="wIB7wDG2Cj-p4bcjclMh-12">
          <mxGeometry y="60" width="160" height="26" as="geometry" />
        </mxCell>
        <mxCell id="wIB7wDG2Cj-p4bcjclMh-16" value="/commits" style="swimlane;fontStyle=1;align=center;verticalAlign=top;childLayout=stackLayout;horizontal=1;startSize=26;horizontalStack=0;resizeParent=1;resizeParentMax=0;resizeLast=0;collapsible=1;marginBottom=0;whiteSpace=wrap;html=1;" vertex="1" parent="1">
          <mxGeometry x="240" y="320" width="160" height="52" as="geometry" />
        </mxCell>
        <mxCell id="wIB7wDG2Cj-p4bcjclMh-17" value="GET: list recent commits" style="text;strokeColor=none;fillColor=none;align=left;verticalAlign=top;spacingLeft=4;spacingRight=4;overflow=hidden;rotatable=0;points=[[0,0.5],[1,0.5]];portConstraint=eastwest;whiteSpace=wrap;html=1;" vertex="1" parent="wIB7wDG2Cj-p4bcjclMh-16">
          <mxGeometry y="26" width="160" height="26" as="geometry" />
        </mxCell>
        <mxCell id="wIB7wDG2Cj-p4bcjclMh-26" value="/images" style="swimlane;fontStyle=1;align=center;verticalAlign=top;childLayout=stackLayout;horizontal=1;startSize=26;horizontalStack=0;resizeParent=1;resizeParentMax=0;resizeLast=0;collapsible=1;marginBottom=0;whiteSpace=wrap;html=1;" vertex="1" parent="1">
          <mxGeometry x="640" y="320" width="160" height="86" as="geometry" />
        </mxCell>
        <mxCell id="wIB7wDG2Cj-p4bcjclMh-27" value="POST: upload an image" style="text;strokeColor=none;fillColor=none;align=left;verticalAlign=top;spacingLeft=4;spacingRight=4;overflow=hidden;rotatable=0;points=[[0,0.5],[1,0.5]];portConstraint=eastwest;whiteSpace=wrap;html=1;" vertex="1" parent="wIB7wDG2Cj-p4bcjclMh-26">
          <mxGeometry y="26" width="160" height="26" as="geometry" />
        </mxCell>
        <mxCell id="wIB7wDG2Cj-p4bcjclMh-28" value="" style="line;strokeWidth=1;fillColor=none;align=left;verticalAlign=middle;spacingTop=-1;spacingLeft=3;spacingRight=3;rotatable=0;labelPosition=right;points=[];portConstraint=eastwest;strokeColor=inherit;" vertex="1" parent="wIB7wDG2Cj-p4bcjclMh-26">
          <mxGeometry y="52" width="160" height="8" as="geometry" />
        </mxCell>
        <mxCell id="wIB7wDG2Cj-p4bcjclMh-29" value="DELETE: delete an image" style="text;strokeColor=none;fillColor=none;align=left;verticalAlign=top;spacingLeft=4;spacingRight=4;overflow=hidden;rotatable=0;points=[[0,0.5],[1,0.5]];portConstraint=eastwest;whiteSpace=wrap;html=1;" vertex="1" parent="wIB7wDG2Cj-p4bcjclMh-26">
          <mxGeometry y="60" width="160" height="26" as="geometry" />
        </mxCell>
        <mxCell id="wIB7wDG2Cj-p4bcjclMh-32" style="edgeStyle=orthogonalEdgeStyle;rounded=0;orthogonalLoop=1;jettySize=auto;html=1;entryX=0;entryY=0.5;entryDx=0;entryDy=0;" edge="1" parent="1" source="wIB7wDG2Cj-p4bcjclMh-7" target="wIB7wDG2Cj-p4bcjclMh-17">
          <mxGeometry relative="1" as="geometry" />
        </mxCell>
        <mxCell id="wIB7wDG2Cj-p4bcjclMh-33" style="edgeStyle=orthogonalEdgeStyle;rounded=0;orthogonalLoop=1;jettySize=auto;html=1;entryX=0;entryY=0.5;entryDx=0;entryDy=0;" edge="1" parent="1" source="wIB7wDG2Cj-p4bcjclMh-3" target="wIB7wDG2Cj-p4bcjclMh-15">
          <mxGeometry relative="1" as="geometry" />
        </mxCell>
        <mxCell id="wIB7wDG2Cj-p4bcjclMh-34" style="edgeStyle=orthogonalEdgeStyle;rounded=0;orthogonalLoop=1;jettySize=auto;html=1;entryX=0;entryY=0.5;entryDx=0;entryDy=0;" edge="1" parent="1" source="wIB7wDG2Cj-p4bcjclMh-9" target="wIB7wDG2Cj-p4bcjclMh-27">
          <mxGeometry relative="1" as="geometry" />
        </mxCell>
        <mxCell id="wIB7wDG2Cj-p4bcjclMh-35" style="edgeStyle=orthogonalEdgeStyle;rounded=0;orthogonalLoop=1;jettySize=auto;html=1;entryX=1;entryY=0.5;entryDx=0;entryDy=0;" edge="1" parent="1" source="wIB7wDG2Cj-p4bcjclMh-11" target="wIB7wDG2Cj-p4bcjclMh-29">
          <mxGeometry relative="1" as="geometry">
            <Array as="points">
              <mxPoint x="820" y="259" />
              <mxPoint x="820" y="393" />
            </Array>
          </mxGeometry>
        </mxCell>
        <mxCell id="wIB7wDG2Cj-p4bcjclMh-36" value="&lt;h1 style=&quot;margin-top: 0px;&quot;&gt;Legacy API Refactor&lt;/h1&gt;" style="text;html=1;whiteSpace=wrap;overflow=hidden;rounded=0;" vertex="1" parent="1">
          <mxGeometry x="40" y="160" width="510" height="40" as="geometry" />
        </mxCell>
        <mxCell id="wIB7wDG2Cj-p4bcjclMh-48" style="edgeStyle=orthogonalEdgeStyle;rounded=0;orthogonalLoop=1;jettySize=auto;html=1;entryX=0;entryY=0.5;entryDx=0;entryDy=0;" edge="1" parent="1" source="wIB7wDG2Cj-p4bcjclMh-47" target="wIB7wDG2Cj-p4bcjclMh-13">
          <mxGeometry relative="1" as="geometry" />
        </mxCell>
        <mxCell id="wIB7wDG2Cj-p4bcjclMh-47" value="NEW" style="text;html=1;align=center;verticalAlign=middle;whiteSpace=wrap;rounded=0;" vertex="1" parent="1">
          <mxGeometry x="340" y="378" width="60" height="30" as="geometry" />
        </mxCell>
        <mxCell id="wIB7wDG2Cj-p4bcjclMh-50" value="New Endpoints:" style="text;html=1;align=left;verticalAlign=middle;whiteSpace=wrap;rounded=0;fontSize=20;fontStyle=1" vertex="1" parent="1">
          <mxGeometry x="40" y="320" width="170" height="30" as="geometry" />
        </mxCell>
      </root>
    </mxGraphModel>
  </diagram>
</mxfile>
